<svg width="262" height="197" viewBox="0 0 262 197" fill="none" xmlns="http://www.w3.org/2000/svg">
<g clip-path="url(#clip0_121_25)">
<path fill-rule="evenodd" clip-rule="evenodd" d="M257.889 123.1L253.617 142.811C253.366 143.957 252.329 144.781 251.125 144.781L247.292 144.777C246.933 144.781 246.578 144.709 246.25 144.564C245.922 144.419 245.628 144.206 245.389 143.938C245.15 143.671 244.971 143.355 244.864 143.012C244.756 142.669 244.724 142.307 244.768 141.951C245.597 135.479 242.551 129.998 232.397 129.991C216.826 129.988 205.904 143.459 205.896 158.886C205.889 172.841 215.936 183.446 234.109 183.454C241.085 183.454 247.492 181.415 250.603 180.241C251.461 179.918 252.344 180.635 252.176 181.512L250.331 190.979C250.059 192.376 249.001 193.497 247.596 193.884C242.125 195.392 234.052 197.004 224.159 197C191.166 197.122 178.256 180.43 178.263 163.46C178.27 146.589 189.74 118.182 236.308 118.2C244.103 118.2 252.076 119.916 256.645 121.126C257.065 121.231 257.429 121.495 257.66 121.862C257.891 122.229 257.972 122.671 257.886 123.096M183.458 122.401L179.339 140.178C179.21 140.705 178.906 141.173 178.478 141.505C178.049 141.838 177.521 142.015 176.979 142.008H170.508C170.183 142.013 169.861 141.951 169.561 141.826C169.261 141.701 168.99 141.516 168.765 141.282C168.539 141.048 168.364 140.77 168.25 140.466C168.136 140.161 168.085 139.837 168.102 139.512C168.398 134.78 166.7 132.008 161.212 132.004L143.814 132.011L139.284 152.299L163.561 152.31C165.037 152.31 166.135 153.638 165.824 155.046L163.661 164.728C163.534 165.264 163.229 165.742 162.796 166.082C162.362 166.421 161.827 166.603 161.276 166.597L135.773 166.594C135.773 166.594 132.949 179.087 132.845 179.621C131.787 184.12 135.341 186.118 137.157 186.831C137.729 187.053 138.058 187.641 137.933 188.228L136.703 194.006C136.575 194.57 136.258 195.074 135.805 195.433C135.352 195.793 134.789 195.985 134.211 195.979L106.166 195.968C104.539 195.968 103.331 194.5 103.681 192.96L116.531 136.331C117.972 130.851 114.271 128.892 112.105 128.225C111.722 128.11 111.397 127.854 111.195 127.508C110.994 127.163 110.93 126.754 111.018 126.363L112.18 121.291C112.313 120.733 112.632 120.238 113.083 119.885C113.535 119.532 114.092 119.344 114.664 119.35L180.98 119.375C182.607 119.375 183.819 120.851 183.461 122.401M106.942 122.369L106.08 126.137C105.958 126.64 105.682 127.091 105.291 127.428C104.9 127.766 104.413 127.972 103.899 128.018C101.414 128.276 96.8021 129.121 93.2196 131.883L66.2615 153.689L86.977 181.029C90.9921 186.197 92.8656 187 98.411 187.089C99.0545 187.096 99.5336 187.676 99.4049 188.293L98.1821 193.988C98.0538 194.552 97.7361 195.056 97.2819 195.415C96.8278 195.773 96.2647 195.965 95.6866 195.958L79.8228 195.922C61.9389 195.911 57.0085 188.271 42.1243 161.733L37.7624 181.09C37.0116 184.503 40.4439 186.097 42.3031 186.699C42.9324 186.903 43.3042 187.54 43.1612 188.178L41.8812 193.93C41.7496 194.491 41.4314 194.989 40.9791 195.344C40.5268 195.699 39.9673 195.889 39.3928 195.882L3.0387 195.847C1.4155 195.839 0.214182 194.378 0.553839 192.838L1.53348 188.457C1.62926 188.056 1.84984 187.695 2.16342 187.427C2.477 187.16 2.86737 186.998 3.27825 186.967C6.76778 186.641 10.4611 184.653 12.7315 174.126L21.2372 136.302C22.4707 130.629 19.0348 128.913 16.6929 128.215C16.3372 128.116 16.0324 127.885 15.841 127.569C15.6497 127.253 15.5861 126.875 15.6632 126.513L16.8538 121.255C16.9873 120.697 17.3057 120.201 17.757 119.848C18.2084 119.495 18.766 119.305 19.3387 119.31L54.3913 119.303C55.7428 119.303 56.7475 120.521 56.4543 121.807L55.5212 125.912C55.3883 126.467 55.1168 126.98 54.7322 127.401C54.3476 127.823 53.8625 128.14 53.3223 128.322C51.6598 128.913 49.2965 130.271 48.5349 133.297L43.7797 154.366L71.4171 132.026C73.2513 130.55 72.5326 128.523 70.0657 128.014C69.9091 127.983 69.7604 127.92 69.6283 127.83C69.4962 127.741 69.3834 127.625 69.2964 127.491C69.2095 127.357 69.1502 127.207 69.122 127.049C69.0939 126.892 69.0974 126.73 69.1325 126.574C69.4543 125.163 69.9727 122.917 70.3481 121.309C70.482 120.757 70.7982 120.267 71.2454 119.917C71.6926 119.568 72.2445 119.381 72.8115 119.386L104.453 119.353C106.08 119.353 107.289 120.822 106.935 122.369" fill="black"/>
<path d="M11.2266 0H61.2814V60.8909H11.2266V0ZM111.336 0H161.391V60.8909H111.336V0ZM211.446 0H261.501V60.8909H211.446V0Z" fill="#E4002B"/>
</g>
<defs>
<clipPath id="clip0_121_25">
<rect width="261" height="197" fill="white" transform="translate(0.5)"/>
</clipPath>
</defs>
</svg>
