<svg width="115" height="35" viewBox="0 0 115 35" fill="none" xmlns="http://www.w3.org/2000/svg">
<path fill-rule="evenodd" clip-rule="evenodd" d="M114.395 2.17637L112.496 10.9311C112.385 11.4402 111.924 11.8061 111.388 11.8061L109.685 11.8045C109.525 11.8064 109.368 11.7742 109.222 11.7099C109.076 11.6456 108.945 11.5509 108.839 11.432C108.733 11.3131 108.653 11.1728 108.606 11.0206C108.558 10.8683 108.543 10.7077 108.563 10.5493C108.932 7.67455 107.578 5.24046 103.065 5.23728C96.1446 5.23569 91.29 11.2191 91.2869 18.0711C91.2837 24.2693 95.7489 28.98 103.826 28.9832C106.926 28.9832 109.774 28.078 111.156 27.5561C111.538 27.413 111.93 27.7311 111.855 28.1209L111.035 32.3257C110.915 32.9461 110.444 33.4441 109.82 33.6159C107.389 34.2857 103.801 35.0016 99.4037 35C84.74 35.0541 79.002 27.6405 79.0052 20.1027C79.0083 12.6096 84.106 -0.00795079 104.803 3.75932e-06C108.267 3.75932e-06 111.811 0.762051 113.842 1.29978C114.029 1.34634 114.19 1.46335 114.293 1.62639C114.396 1.78942 114.432 1.98589 114.393 2.17478M81.314 1.86614L79.4835 9.76182C79.4261 9.996 79.2911 10.2038 79.1007 10.3514C78.9103 10.4991 78.6755 10.5778 78.4347 10.5748H75.5585C75.4143 10.5769 75.2711 10.5494 75.1378 10.4939C75.0046 10.4385 74.8841 10.3562 74.7839 10.2523C74.6837 10.1484 74.6058 10.025 74.5551 9.8897C74.5044 9.75444 74.4819 9.6102 74.4891 9.46591C74.621 7.36432 73.8662 6.13296 71.427 6.13137L63.6948 6.13455L61.6814 15.1455L72.471 15.1502C73.1273 15.1502 73.6151 15.7405 73.4769 16.3657L72.5155 20.6659C72.4593 20.9042 72.3237 21.1163 72.131 21.2672C71.9384 21.4181 71.7002 21.499 71.4556 21.4964L60.121 21.4948C60.121 21.4948 58.8657 27.0439 58.8196 27.2809C58.3492 29.2791 59.9287 30.1668 60.736 30.4834C60.9902 30.582 61.1364 30.843 61.0808 31.1039L60.5342 33.67C60.4775 33.9209 60.3366 34.1447 60.1351 34.3042C59.9335 34.4638 59.6835 34.5493 59.4266 34.5466L46.9622 34.5418C46.2391 34.5418 45.702 33.8896 45.8578 33.2055L51.5688 8.05319C52.2092 5.6191 50.5645 4.74887 49.6016 4.45296C49.4315 4.40176 49.2871 4.28795 49.1975 4.13446C49.1078 3.98097 49.0796 3.79918 49.1185 3.62568L49.6349 1.37296C49.6943 1.12527 49.8359 0.905091 50.0365 0.748449C50.2371 0.591807 50.4849 0.507977 50.7393 0.510684L80.2128 0.521821C80.9359 0.521821 81.4745 1.17728 81.3156 1.86614M47.307 1.85182L46.924 3.52546C46.8698 3.74859 46.7472 3.94914 46.5733 4.09894C46.3995 4.24874 46.1832 4.34027 45.9547 4.36069C44.8503 4.47523 42.8005 4.85069 41.2082 6.07728L29.2269 15.7627L38.4338 27.9061C40.2183 30.2018 41.0509 30.5582 43.5155 30.598C43.8016 30.6011 44.0145 30.8589 43.9573 31.1325L43.4138 33.662C43.3568 33.9129 43.2156 34.1366 43.0137 34.2958C42.8119 34.4551 42.5616 34.5402 42.3047 34.537L35.2541 34.5211C27.3057 34.5164 25.1144 31.123 18.4992 19.3359L16.5606 27.9332C16.2269 29.4493 17.7524 30.1573 18.5787 30.4245C18.8584 30.5152 19.0236 30.7984 18.9601 31.0816L18.3912 33.6366C18.3327 33.8854 18.1913 34.1069 17.9902 34.2645C17.7892 34.4221 17.5405 34.5065 17.2852 34.5036L1.12785 34.4877C0.406426 34.4846 -0.127491 33.8355 0.0234675 33.1514L0.458865 31.2057C0.501432 31.0274 0.599468 30.8672 0.738837 30.7482C0.878206 30.6293 1.05171 30.5577 1.23432 30.5439C2.78522 30.3991 4.4267 29.5161 5.43574 24.8405L9.21607 8.04046C9.76429 5.52046 8.23722 4.75842 7.1964 4.44819C7.03828 4.40437 6.90285 4.30173 6.81778 4.16127C6.73272 4.02081 6.70445 3.85313 6.73876 3.6925L7.26791 1.35705C7.32722 1.10921 7.46874 0.888825 7.66933 0.731918C7.86993 0.57501 8.11774 0.490852 8.37229 0.493188L23.9512 0.490002C24.5519 0.490002 24.9984 1.03091 24.8681 1.60205L24.4534 3.42523C24.3943 3.67192 24.2737 3.89956 24.1027 4.08682C23.9318 4.27408 23.7162 4.41484 23.4761 4.49591C22.7372 4.75841 21.6869 5.36137 21.3484 6.70569L19.235 16.0634L31.5183 6.14091C32.3334 5.48546 32.014 4.58501 30.9176 4.3591C30.848 4.34514 30.7819 4.31739 30.7232 4.27749C30.6645 4.23759 30.6144 4.18634 30.5757 4.12675C30.5371 4.06717 30.5107 4.00045 30.4982 3.93052C30.4857 3.86059 30.4873 3.78886 30.5029 3.71955C30.6459 3.09273 30.8763 2.09523 31.0431 1.38091C31.1026 1.13575 31.2432 0.917932 31.4419 0.762838C31.6407 0.607744 31.886 0.524489 32.138 0.526597L46.201 0.512274C46.924 0.512274 47.4611 1.16455 47.3038 1.85182" fill="#0D0D0D"/>
</svg>
