<svg width="58" height="58" viewBox="0 0 58 58" fill="none" xmlns="http://www.w3.org/2000/svg">
<circle cx="29" cy="29" r="28.5" stroke="#999999"/>
<path d="M29 28.9655C27.481 28.9655 26.2381 28.4821 25.2714 27.5155C24.3048 26.5488 23.8214 25.306 23.8214 23.7869C23.8214 22.2679 24.3048 21.025 25.2714 20.0583C26.2381 19.0917 27.481 18.6083 29 18.6083C30.5191 18.6083 31.7619 19.0917 32.7286 20.0583C33.6952 21.025 34.1786 22.2679 34.1786 23.7869C34.1786 25.306 33.6952 26.5488 32.7286 27.5155C31.7619 28.4821 30.5191 28.9655 29 28.9655V28.9655ZM17.9524 40.0476V36.8024C17.9524 35.9278 18.171 35.1798 18.6083 34.5583C19.0456 33.9369 19.6095 33.4651 20.3 33.1429C21.8421 32.4524 23.3208 31.9345 24.7363 31.5893C26.1518 31.2441 27.573 31.0714 29 31.0714C30.427 31.0714 31.8425 31.2498 33.2464 31.6066C34.6504 31.9633 36.1234 32.4754 37.6655 33.1429C38.379 33.4651 38.9544 33.9369 39.3917 34.5583C39.829 35.1798 40.0476 35.9278 40.0476 36.8024V40.0476H17.9524ZM20.0238 37.9762H37.9762V36.8024C37.9762 36.4341 37.8669 36.0831 37.6482 35.7494C37.4296 35.4157 37.1591 35.1683 36.8369 35.0071C35.3639 34.2937 34.0175 33.8046 32.7976 33.5399C31.5778 33.2752 30.3119 33.1429 29 33.1429C27.6881 33.1429 26.4107 33.2752 25.1679 33.5399C23.925 33.8046 22.5786 34.2937 21.1286 35.0071C20.8064 35.1683 20.5417 35.4157 20.3345 35.7494C20.1274 36.0831 20.0238 36.4341 20.0238 36.8024V37.9762ZM29 26.8941C29.8976 26.8941 30.6399 26.6006 31.2268 26.0137C31.8137 25.4268 32.1072 24.6845 32.1072 23.7869C32.1072 22.8893 31.8137 22.147 31.2268 21.5601C30.6399 20.9732 29.8976 20.6798 29 20.6798C28.1024 20.6798 27.3601 20.9732 26.7732 21.5601C26.1863 22.147 25.8929 22.8893 25.8929 23.7869C25.8929 24.6845 26.1863 25.4268 26.7732 26.0137C27.3601 26.6006 28.1024 26.8941 29 26.8941Z" fill="#E4002B"/>
</svg>
